<mxfile host="www.draw.io" modified="2019-12-01T06:40:41.452Z" agent="Mozilla/5.0 (Windows NT 6.1; Win64; x64; rv:70.0) Gecko/20100101 Firefox/70.0" etag="kx7OhyZQpQZ81189ar_2" version="12.3.3" type="github" pages="1">
  <diagram id="LLXgX8Lwfhktw0jxNgKq" name="第 1 页">
    <mxGraphModel dx="1822" dy="769" grid="1" gridSize="10" guides="1" tooltips="1" connect="1" arrows="1" fold="1" page="0" pageScale="1" pageWidth="1169" pageHeight="827" math="0" shadow="0">
      <root>
        <mxCell id="0"/>
        <mxCell id="1" parent="0"/>
        <mxCell id="MlfYq8WReEL75zz9TSRM-6" value="" style="rounded=0;whiteSpace=wrap;html=1;" parent="1" vertex="1">
          <mxGeometry x="-100" y="650" width="510" height="320" as="geometry"/>
        </mxCell>
        <mxCell id="bSM1QeH2-7cTWB_Kbm0b-5" value="" style="edgeStyle=orthogonalEdgeStyle;rounded=0;orthogonalLoop=1;jettySize=auto;html=1;" parent="1" source="bSM1QeH2-7cTWB_Kbm0b-1" target="bSM1QeH2-7cTWB_Kbm0b-4" edge="1">
          <mxGeometry relative="1" as="geometry"/>
        </mxCell>
        <mxCell id="bSM1QeH2-7cTWB_Kbm0b-1" value="&lt;font style=&quot;font-size: 20px&quot;&gt;沈浪&lt;/font&gt;" style="rounded=0;whiteSpace=wrap;html=1;" parent="1" vertex="1">
          <mxGeometry x="687" y="120" width="120" height="60" as="geometry"/>
        </mxCell>
        <mxCell id="bSM1QeH2-7cTWB_Kbm0b-11" value="" style="edgeStyle=orthogonalEdgeStyle;rounded=0;orthogonalLoop=1;jettySize=auto;html=1;exitX=0.75;exitY=1;exitDx=0;exitDy=0;" parent="1" source="bSM1QeH2-7cTWB_Kbm0b-4" target="bSM1QeH2-7cTWB_Kbm0b-10" edge="1">
          <mxGeometry relative="1" as="geometry"/>
        </mxCell>
        <mxCell id="bSM1QeH2-7cTWB_Kbm0b-15" value="&lt;font style=&quot;font-size: 15px&quot;&gt;生子&lt;/font&gt;" style="text;html=1;resizable=0;points=[];align=center;verticalAlign=middle;labelBackgroundColor=#ffffff;" parent="bSM1QeH2-7cTWB_Kbm0b-11" vertex="1" connectable="0">
          <mxGeometry x="-0.1556" y="-1" relative="1" as="geometry">
            <mxPoint x="4" y="-21" as="offset"/>
          </mxGeometry>
        </mxCell>
        <mxCell id="bSM1QeH2-7cTWB_Kbm0b-14" value="" style="edgeStyle=orthogonalEdgeStyle;rounded=0;orthogonalLoop=1;jettySize=auto;html=1;exitX=0.25;exitY=1;exitDx=0;exitDy=0;entryX=0.75;entryY=0;entryDx=0;entryDy=0;" parent="1" source="bSM1QeH2-7cTWB_Kbm0b-4" target="bSM1QeH2-7cTWB_Kbm0b-13" edge="1">
          <mxGeometry relative="1" as="geometry"/>
        </mxCell>
        <mxCell id="bSM1QeH2-7cTWB_Kbm0b-16" value="&lt;font style=&quot;font-size: 15px&quot;&gt;养子&lt;/font&gt;" style="text;html=1;resizable=0;points=[];align=center;verticalAlign=middle;labelBackgroundColor=#ffffff;" parent="bSM1QeH2-7cTWB_Kbm0b-14" vertex="1" connectable="0">
          <mxGeometry x="-0.5789" y="-21" relative="1" as="geometry">
            <mxPoint x="-16" y="-4" as="offset"/>
          </mxGeometry>
        </mxCell>
        <mxCell id="bSM1QeH2-7cTWB_Kbm0b-4" value="&lt;font style=&quot;font-size: 20px&quot;&gt;沈沧海&lt;/font&gt;" style="rounded=0;whiteSpace=wrap;html=1;" parent="1" vertex="1">
          <mxGeometry x="687" y="270" width="120" height="60" as="geometry"/>
        </mxCell>
        <mxCell id="bSM1QeH2-7cTWB_Kbm0b-13" value="&lt;div style=&quot;font-size: 20px&quot;&gt;&lt;font style=&quot;font-size: 20px&quot;&gt;呼延鸿&lt;/font&gt;&lt;/div&gt;&lt;div style=&quot;font-size: 20px&quot;&gt;&lt;font style=&quot;font-size: 20px&quot;&gt;（沈孤鸿）&lt;/font&gt;&lt;/div&gt;" style="rounded=0;whiteSpace=wrap;html=1;" parent="1" vertex="1">
          <mxGeometry x="547" y="410" width="120" height="60" as="geometry"/>
        </mxCell>
        <mxCell id="bSM1QeH2-7cTWB_Kbm0b-10" value="&lt;div&gt;&lt;font style=&quot;font-size: 20px&quot;&gt;沈孤雁&lt;/font&gt;&lt;/div&gt;&lt;div&gt;&lt;font style=&quot;font-size: 20px&quot;&gt;（公子羽）&lt;br&gt;&lt;/font&gt;&lt;/div&gt;" style="rounded=0;whiteSpace=wrap;html=1;" parent="1" vertex="1">
          <mxGeometry x="817" y="410" width="120" height="60" as="geometry"/>
        </mxCell>
        <mxCell id="45eqlcjFi_btQKpBo4QL-4" style="edgeStyle=orthogonalEdgeStyle;rounded=0;orthogonalLoop=1;jettySize=auto;html=1;exitX=0.5;exitY=1;exitDx=0;exitDy=0;entryX=0.5;entryY=0;entryDx=0;entryDy=0;" parent="1" source="bSM1QeH2-7cTWB_Kbm0b-7" target="45eqlcjFi_btQKpBo4QL-1" edge="1">
          <mxGeometry relative="1" as="geometry"/>
        </mxCell>
        <mxCell id="45eqlcjFi_btQKpBo4QL-8" style="edgeStyle=orthogonalEdgeStyle;rounded=0;orthogonalLoop=1;jettySize=auto;html=1;exitX=0.5;exitY=1;exitDx=0;exitDy=0;" parent="1" source="bSM1QeH2-7cTWB_Kbm0b-7" target="45eqlcjFi_btQKpBo4QL-7" edge="1">
          <mxGeometry relative="1" as="geometry"/>
        </mxCell>
        <mxCell id="bSM1QeH2-7cTWB_Kbm0b-7" value="&lt;font style=&quot;font-size: 20px&quot;&gt;王怜花&lt;/font&gt;" style="rounded=0;whiteSpace=wrap;html=1;" parent="1" vertex="1">
          <mxGeometry x="1000" y="120" width="120" height="60" as="geometry"/>
        </mxCell>
        <mxCell id="e-VzyIsWQ0Jc4iS6yCOB-6" style="edgeStyle=orthogonalEdgeStyle;rounded=0;orthogonalLoop=1;jettySize=auto;html=1;exitX=0.5;exitY=1;exitDx=0;exitDy=0;entryX=0.25;entryY=0;entryDx=0;entryDy=0;" parent="1" source="bSM1QeH2-7cTWB_Kbm0b-17" target="bSM1QeH2-7cTWB_Kbm0b-13" edge="1">
          <mxGeometry relative="1" as="geometry"/>
        </mxCell>
        <mxCell id="e-VzyIsWQ0Jc4iS6yCOB-8" style="edgeStyle=orthogonalEdgeStyle;rounded=0;orthogonalLoop=1;jettySize=auto;html=1;exitX=0.5;exitY=1;exitDx=0;exitDy=0;" parent="1" source="bSM1QeH2-7cTWB_Kbm0b-17" target="bSM1QeH2-7cTWB_Kbm0b-21" edge="1">
          <mxGeometry relative="1" as="geometry"/>
        </mxCell>
        <mxCell id="bSM1QeH2-7cTWB_Kbm0b-17" value="&lt;font style=&quot;font-size: 20px&quot;&gt;呼延显&lt;/font&gt;" style="rounded=0;whiteSpace=wrap;html=1;" parent="1" vertex="1">
          <mxGeometry x="370" y="270" width="120" height="60" as="geometry"/>
        </mxCell>
        <mxCell id="bSM1QeH2-7cTWB_Kbm0b-21" value="&lt;div style=&quot;font-size: 20px&quot;&gt;&lt;font style=&quot;font-size: 20px&quot;&gt;呼延泰&lt;/font&gt;&lt;/div&gt;&lt;div style=&quot;font-size: 20px&quot;&gt;&lt;font style=&quot;font-size: 20px&quot;&gt;（江山）&lt;br&gt;&lt;/font&gt;&lt;/div&gt;" style="rounded=0;whiteSpace=wrap;html=1;" parent="1" vertex="1">
          <mxGeometry x="240" y="410" width="120" height="60" as="geometry"/>
        </mxCell>
        <mxCell id="bSM1QeH2-7cTWB_Kbm0b-37" value="&lt;div style=&quot;font-size: 20px&quot;&gt;&lt;font style=&quot;font-size: 20px&quot;&gt;唐蓝&lt;/font&gt;&lt;/div&gt;&lt;div style=&quot;font-size: 20px&quot;&gt;&lt;font style=&quot;font-size: 20px&quot;&gt;（明月心）&lt;/font&gt;&lt;/div&gt;" style="rounded=0;whiteSpace=wrap;html=1;fontSize=15;" parent="1" vertex="1">
          <mxGeometry x="1060" y="410" width="120" height="60" as="geometry"/>
        </mxCell>
        <mxCell id="bSM1QeH2-7cTWB_Kbm0b-38" value="" style="endArrow=none;dashed=1;html=1;fontSize=15;entryX=0;entryY=0.5;entryDx=0;entryDy=0;exitX=1;exitY=0.5;exitDx=0;exitDy=0;" parent="1" source="bSM1QeH2-7cTWB_Kbm0b-10" target="bSM1QeH2-7cTWB_Kbm0b-37" edge="1">
          <mxGeometry width="50" height="50" relative="1" as="geometry">
            <mxPoint x="960" y="410" as="sourcePoint"/>
            <mxPoint x="1010" y="360" as="targetPoint"/>
          </mxGeometry>
        </mxCell>
        <mxCell id="bSM1QeH2-7cTWB_Kbm0b-39" value="夫妻" style="text;html=1;resizable=0;points=[];align=center;verticalAlign=middle;labelBackgroundColor=#ffffff;fontSize=15;" parent="bSM1QeH2-7cTWB_Kbm0b-38" vertex="1" connectable="0">
          <mxGeometry x="0.4309" relative="1" as="geometry">
            <mxPoint x="-25" y="-10" as="offset"/>
          </mxGeometry>
        </mxCell>
        <mxCell id="31wNG8KNUrYjCj7yrNU9-1" value="&lt;font style=&quot;font-size: 20px&quot;&gt;唐林&lt;/font&gt;" style="rounded=0;whiteSpace=wrap;html=1;fontSize=15;" parent="1" vertex="1">
          <mxGeometry x="1440" y="410" width="120" height="60" as="geometry"/>
        </mxCell>
        <mxCell id="31wNG8KNUrYjCj7yrNU9-2" value="" style="endArrow=none;dashed=1;html=1;fontSize=15;entryX=0;entryY=0.5;entryDx=0;entryDy=0;exitX=1;exitY=0.5;exitDx=0;exitDy=0;" parent="1" source="bSM1QeH2-7cTWB_Kbm0b-17" target="bSM1QeH2-7cTWB_Kbm0b-4" edge="1">
          <mxGeometry width="50" height="50" relative="1" as="geometry">
            <mxPoint x="490" y="280" as="sourcePoint"/>
            <mxPoint x="540" y="230" as="targetPoint"/>
          </mxGeometry>
        </mxCell>
        <mxCell id="31wNG8KNUrYjCj7yrNU9-3" value="龙鳞刺案" style="text;html=1;resizable=0;points=[];align=center;verticalAlign=middle;labelBackgroundColor=#ffffff;fontSize=15;" parent="31wNG8KNUrYjCj7yrNU9-2" vertex="1" connectable="0">
          <mxGeometry x="-0.2884" y="-1" relative="1" as="geometry">
            <mxPoint x="32" y="-11" as="offset"/>
          </mxGeometry>
        </mxCell>
        <mxCell id="MlfYq8WReEL75zz9TSRM-1" value="&lt;font style=&quot;font-size: 15px&quot;&gt;武莫风看守&lt;/font&gt;" style="text;html=1;align=center;verticalAlign=middle;resizable=0;points=[];;labelBackgroundColor=#ffffff;direction=south;" parent="31wNG8KNUrYjCj7yrNU9-2" vertex="1" connectable="0">
          <mxGeometry x="0.4315" y="-4" relative="1" as="geometry">
            <mxPoint x="-42.5" y="6" as="offset"/>
          </mxGeometry>
        </mxCell>
        <mxCell id="e-VzyIsWQ0Jc4iS6yCOB-4" style="edgeStyle=orthogonalEdgeStyle;rounded=0;orthogonalLoop=1;jettySize=auto;html=1;exitX=0.5;exitY=1;exitDx=0;exitDy=0;entryX=0.5;entryY=0;entryDx=0;entryDy=0;" parent="1" source="e-VzyIsWQ0Jc4iS6yCOB-1" target="e-VzyIsWQ0Jc4iS6yCOB-2" edge="1">
          <mxGeometry relative="1" as="geometry"/>
        </mxCell>
        <mxCell id="e-VzyIsWQ0Jc4iS6yCOB-5" style="edgeStyle=orthogonalEdgeStyle;rounded=0;orthogonalLoop=1;jettySize=auto;html=1;exitX=0.5;exitY=1;exitDx=0;exitDy=0;entryX=0.5;entryY=0;entryDx=0;entryDy=0;" parent="1" source="e-VzyIsWQ0Jc4iS6yCOB-1" target="e-VzyIsWQ0Jc4iS6yCOB-3" edge="1">
          <mxGeometry relative="1" as="geometry"/>
        </mxCell>
        <mxCell id="e-VzyIsWQ0Jc4iS6yCOB-1" value="&lt;font style=&quot;font-size: 20px&quot;&gt;唐啸天&lt;/font&gt;" style="rounded=0;whiteSpace=wrap;html=1;" parent="1" vertex="1">
          <mxGeometry x="1250" y="410" width="120" height="60" as="geometry"/>
        </mxCell>
        <mxCell id="e-VzyIsWQ0Jc4iS6yCOB-2" value="&lt;font style=&quot;font-size: 20px&quot;&gt;唐青枫&lt;/font&gt;" style="rounded=0;whiteSpace=wrap;html=1;" parent="1" vertex="1">
          <mxGeometry x="1120" y="550" width="120" height="60" as="geometry"/>
        </mxCell>
        <mxCell id="e-VzyIsWQ0Jc4iS6yCOB-3" value="&lt;font style=&quot;font-size: 20px&quot;&gt;唐青容&lt;/font&gt;" style="rounded=0;whiteSpace=wrap;html=1;" parent="1" vertex="1">
          <mxGeometry x="1380" y="550" width="120" height="60" as="geometry"/>
        </mxCell>
        <mxCell id="e-VzyIsWQ0Jc4iS6yCOB-9" value="&lt;font style=&quot;font-size: 20px&quot;&gt;百晓生&lt;/font&gt;" style="rounded=0;whiteSpace=wrap;html=1;" parent="1" vertex="1">
          <mxGeometry x="1710" y="270" width="120" height="60" as="geometry"/>
        </mxCell>
        <mxCell id="e-VzyIsWQ0Jc4iS6yCOB-11" style="edgeStyle=orthogonalEdgeStyle;rounded=0;orthogonalLoop=1;jettySize=auto;html=1;exitX=0.5;exitY=1;exitDx=0;exitDy=0;entryX=0.5;entryY=0;entryDx=0;entryDy=0;" parent="1" source="e-VzyIsWQ0Jc4iS6yCOB-10" target="e-VzyIsWQ0Jc4iS6yCOB-1" edge="1">
          <mxGeometry relative="1" as="geometry"/>
        </mxCell>
        <mxCell id="e-VzyIsWQ0Jc4iS6yCOB-12" style="edgeStyle=orthogonalEdgeStyle;rounded=0;orthogonalLoop=1;jettySize=auto;html=1;exitX=0.5;exitY=1;exitDx=0;exitDy=0;entryX=0.5;entryY=0;entryDx=0;entryDy=0;" parent="1" source="e-VzyIsWQ0Jc4iS6yCOB-10" target="bSM1QeH2-7cTWB_Kbm0b-37" edge="1">
          <mxGeometry relative="1" as="geometry"/>
        </mxCell>
        <mxCell id="e-VzyIsWQ0Jc4iS6yCOB-13" style="edgeStyle=orthogonalEdgeStyle;rounded=0;orthogonalLoop=1;jettySize=auto;html=1;exitX=0.5;exitY=1;exitDx=0;exitDy=0;entryX=0.5;entryY=0;entryDx=0;entryDy=0;" parent="1" source="e-VzyIsWQ0Jc4iS6yCOB-10" target="31wNG8KNUrYjCj7yrNU9-1" edge="1">
          <mxGeometry relative="1" as="geometry"/>
        </mxCell>
        <mxCell id="e-VzyIsWQ0Jc4iS6yCOB-10" value="&lt;div&gt;&lt;font style=&quot;font-size: 20px&quot;&gt;王郅君&lt;/font&gt;&lt;/div&gt;&lt;div&gt;&lt;font style=&quot;font-size: 20px&quot;&gt;（唐老太&lt;/font&gt;&lt;font style=&quot;font-size: 20px&quot;&gt;）&lt;/font&gt;&lt;/div&gt;" style="rounded=0;whiteSpace=wrap;html=1;" parent="1" vertex="1">
          <mxGeometry x="1250" y="270" width="120" height="60" as="geometry"/>
        </mxCell>
        <mxCell id="e-VzyIsWQ0Jc4iS6yCOB-14" value="&lt;font style=&quot;font-size: 20px&quot;&gt;曲无忆&lt;/font&gt;" style="rounded=0;whiteSpace=wrap;html=1;" parent="1" vertex="1">
          <mxGeometry x="1710" y="410" width="120" height="60" as="geometry"/>
        </mxCell>
        <mxCell id="e-VzyIsWQ0Jc4iS6yCOB-16" value="" style="endArrow=none;dashed=1;html=1;entryX=0.5;entryY=1;entryDx=0;entryDy=0;exitX=0.5;exitY=0;exitDx=0;exitDy=0;" parent="1" source="e-VzyIsWQ0Jc4iS6yCOB-14" target="e-VzyIsWQ0Jc4iS6yCOB-9" edge="1">
          <mxGeometry width="50" height="50" relative="1" as="geometry">
            <mxPoint x="1840" y="400" as="sourcePoint"/>
            <mxPoint x="1890" y="350" as="targetPoint"/>
          </mxGeometry>
        </mxCell>
        <mxCell id="e-VzyIsWQ0Jc4iS6yCOB-17" value="&lt;font style=&quot;font-size: 15px&quot;&gt;师徒&lt;/font&gt;" style="text;html=1;align=center;verticalAlign=middle;resizable=0;points=[];;labelBackgroundColor=#ffffff;" parent="e-VzyIsWQ0Jc4iS6yCOB-16" vertex="1" connectable="0">
          <mxGeometry x="0.3" relative="1" as="geometry">
            <mxPoint x="-30" y="12" as="offset"/>
          </mxGeometry>
        </mxCell>
        <mxCell id="MlfYq8WReEL75zz9TSRM-2" value="&lt;font style=&quot;font-size: 20px&quot;&gt;杨延玉&lt;/font&gt;" style="rounded=0;whiteSpace=wrap;html=1;" parent="1" vertex="1">
          <mxGeometry x="150" y="730" width="120" height="60" as="geometry"/>
        </mxCell>
        <mxCell id="MlfYq8WReEL75zz9TSRM-3" value="&lt;font style=&quot;font-size: 20px&quot;&gt;离玉堂&lt;/font&gt;" style="rounded=0;whiteSpace=wrap;html=1;fillColor=#fff2cc;strokeColor=#d6b656;" parent="1" vertex="1">
          <mxGeometry x="150" y="870" width="120" height="60" as="geometry"/>
        </mxCell>
        <mxCell id="MlfYq8WReEL75zz9TSRM-4" value="" style="endArrow=none;dashed=1;html=1;entryX=0.5;entryY=1;entryDx=0;entryDy=0;exitX=0.5;exitY=0;exitDx=0;exitDy=0;" parent="1" source="MlfYq8WReEL75zz9TSRM-3" target="MlfYq8WReEL75zz9TSRM-2" edge="1">
          <mxGeometry width="50" height="50" relative="1" as="geometry">
            <mxPoint x="70" y="870" as="sourcePoint"/>
            <mxPoint x="120" y="820" as="targetPoint"/>
          </mxGeometry>
        </mxCell>
        <mxCell id="MlfYq8WReEL75zz9TSRM-5" value="&lt;font style=&quot;font-size: 15px&quot;&gt;徒弟&lt;/font&gt;" style="text;html=1;align=center;verticalAlign=middle;resizable=0;points=[];;labelBackgroundColor=#ffffff;" parent="MlfYq8WReEL75zz9TSRM-4" vertex="1" connectable="0">
          <mxGeometry x="-0.375" y="-2" relative="1" as="geometry">
            <mxPoint x="18" y="-15" as="offset"/>
          </mxGeometry>
        </mxCell>
        <mxCell id="MlfYq8WReEL75zz9TSRM-7" value="&lt;font style=&quot;font-size: 15px&quot;&gt;天波府&lt;/font&gt;" style="text;html=1;strokeColor=none;fillColor=none;align=center;verticalAlign=middle;whiteSpace=wrap;rounded=0;" parent="1" vertex="1">
          <mxGeometry x="300" y="680" width="70" height="20" as="geometry"/>
        </mxCell>
        <mxCell id="AWKVO5OOn6Dv6wkFxn1M-1" value="&lt;font style=&quot;font-size: 20px&quot;&gt;鹰眼老七&lt;/font&gt;" style="rounded=0;whiteSpace=wrap;html=1;" parent="1" vertex="1">
          <mxGeometry x="1250" y="730" width="120" height="60" as="geometry"/>
        </mxCell>
        <mxCell id="AWKVO5OOn6Dv6wkFxn1M-2" value="&lt;div style=&quot;font-size: 20px&quot;&gt;&lt;font style=&quot;font-size: 20px&quot;&gt;殷天翼&lt;/font&gt;&lt;/div&gt;" style="rounded=0;whiteSpace=wrap;html=1;" parent="1" vertex="1">
          <mxGeometry x="1250" y="870" width="120" height="60" as="geometry"/>
        </mxCell>
        <mxCell id="AWKVO5OOn6Dv6wkFxn1M-3" value="&lt;font style=&quot;font-size: 20px&quot;&gt;张梦白&lt;/font&gt;" style="rounded=0;whiteSpace=wrap;html=1;" parent="1" vertex="1">
          <mxGeometry x="2050" y="270" width="120" height="60" as="geometry"/>
        </mxCell>
        <mxCell id="AWKVO5OOn6Dv6wkFxn1M-4" value="&lt;font style=&quot;font-size: 20px&quot;&gt;龙复兴&lt;/font&gt;" style="rounded=0;whiteSpace=wrap;html=1;" parent="1" vertex="1">
          <mxGeometry x="1500" y="870" width="120" height="60" as="geometry"/>
        </mxCell>
        <mxCell id="45eqlcjFi_btQKpBo4QL-2" style="edgeStyle=orthogonalEdgeStyle;rounded=0;orthogonalLoop=1;jettySize=auto;html=1;exitX=0.5;exitY=1;exitDx=0;exitDy=0;entryX=0.5;entryY=0;entryDx=0;entryDy=0;" parent="1" source="45eqlcjFi_btQKpBo4QL-1" target="bSM1QeH2-7cTWB_Kbm0b-10" edge="1">
          <mxGeometry relative="1" as="geometry"/>
        </mxCell>
        <mxCell id="45eqlcjFi_btQKpBo4QL-1" value="&lt;font style=&quot;font-size: 20px&quot;&gt;王琳琅&lt;/font&gt;" style="rounded=0;whiteSpace=wrap;html=1;" parent="1" vertex="1">
          <mxGeometry x="920" y="270" width="120" height="60" as="geometry"/>
        </mxCell>
        <mxCell id="45eqlcjFi_btQKpBo4QL-5" value="" style="endArrow=none;dashed=1;html=1;entryX=0;entryY=0.5;entryDx=0;entryDy=0;exitX=1;exitY=0.5;exitDx=0;exitDy=0;" parent="1" source="bSM1QeH2-7cTWB_Kbm0b-4" target="45eqlcjFi_btQKpBo4QL-1" edge="1">
          <mxGeometry width="50" height="50" relative="1" as="geometry">
            <mxPoint x="850" y="270" as="sourcePoint"/>
            <mxPoint x="900" y="220" as="targetPoint"/>
          </mxGeometry>
        </mxCell>
        <mxCell id="45eqlcjFi_btQKpBo4QL-6" value="&lt;font style=&quot;font-size: 15px&quot;&gt;夫妻&lt;/font&gt;" style="text;html=1;align=center;verticalAlign=middle;resizable=0;points=[];;labelBackgroundColor=#ffffff;" parent="45eqlcjFi_btQKpBo4QL-5" vertex="1" connectable="0">
          <mxGeometry x="0.3274" y="-1" relative="1" as="geometry">
            <mxPoint x="-18.5" y="-21" as="offset"/>
          </mxGeometry>
        </mxCell>
        <mxCell id="45eqlcjFi_btQKpBo4QL-7" value="&lt;font style=&quot;font-size: 20px&quot;&gt;王神庭&lt;/font&gt;" style="rounded=0;whiteSpace=wrap;html=1;" parent="1" vertex="1">
          <mxGeometry x="1085" y="270" width="120" height="60" as="geometry"/>
        </mxCell>
        <mxCell id="45eqlcjFi_btQKpBo4QL-13" style="edgeStyle=orthogonalEdgeStyle;rounded=0;orthogonalLoop=1;jettySize=auto;html=1;exitX=0.5;exitY=1;exitDx=0;exitDy=0;entryX=0.5;entryY=0;entryDx=0;entryDy=0;" parent="1" source="45eqlcjFi_btQKpBo4QL-9" target="45eqlcjFi_btQKpBo4QL-10" edge="1">
          <mxGeometry relative="1" as="geometry"/>
        </mxCell>
        <mxCell id="45eqlcjFi_btQKpBo4QL-14" style="edgeStyle=orthogonalEdgeStyle;rounded=0;orthogonalLoop=1;jettySize=auto;html=1;exitX=0.5;exitY=1;exitDx=0;exitDy=0;entryX=0.5;entryY=0;entryDx=0;entryDy=0;" parent="1" source="45eqlcjFi_btQKpBo4QL-9" target="45eqlcjFi_btQKpBo4QL-11" edge="1">
          <mxGeometry relative="1" as="geometry"/>
        </mxCell>
        <mxCell id="45eqlcjFi_btQKpBo4QL-15" style="edgeStyle=orthogonalEdgeStyle;rounded=0;orthogonalLoop=1;jettySize=auto;html=1;exitX=0.5;exitY=1;exitDx=0;exitDy=0;entryX=0.5;entryY=0;entryDx=0;entryDy=0;" parent="1" source="45eqlcjFi_btQKpBo4QL-9" target="45eqlcjFi_btQKpBo4QL-12" edge="1">
          <mxGeometry relative="1" as="geometry"/>
        </mxCell>
        <mxCell id="45eqlcjFi_btQKpBo4QL-9" value="&lt;font style=&quot;font-size: 20px&quot;&gt;韩学信&lt;/font&gt;" style="rounded=0;whiteSpace=wrap;html=1;" parent="1" vertex="1">
          <mxGeometry x="2370" y="410" width="120" height="60" as="geometry"/>
        </mxCell>
        <mxCell id="45eqlcjFi_btQKpBo4QL-10" value="&lt;font style=&quot;font-size: 20px&quot;&gt;韩莹莹&lt;/font&gt;" style="rounded=0;whiteSpace=wrap;html=1;" parent="1" vertex="1">
          <mxGeometry x="2370" y="550" width="120" height="60" as="geometry"/>
        </mxCell>
        <mxCell id="45eqlcjFi_btQKpBo4QL-11" value="&lt;font style=&quot;font-size: 20px&quot;&gt;韩振天&lt;/font&gt;" style="rounded=0;whiteSpace=wrap;html=1;" parent="1" vertex="1">
          <mxGeometry x="2210" y="550" width="120" height="60" as="geometry"/>
        </mxCell>
        <mxCell id="45eqlcjFi_btQKpBo4QL-12" value="&lt;font style=&quot;font-size: 20px&quot;&gt;韩思思&lt;/font&gt;" style="rounded=0;whiteSpace=wrap;html=1;" parent="1" vertex="1">
          <mxGeometry x="2530" y="550" width="120" height="60" as="geometry"/>
        </mxCell>
        <mxCell id="5swqk8HKtT8f3ECwfF0--1" value="&lt;font style=&quot;font-size: 15px&quot;&gt;十二连环坞&lt;/font&gt;" style="text;html=1;strokeColor=none;fillColor=none;align=center;verticalAlign=middle;whiteSpace=wrap;rounded=0;" parent="1" vertex="1">
          <mxGeometry x="1620" y="800" width="80" height="20" as="geometry"/>
        </mxCell>
        <mxCell id="5swqk8HKtT8f3ECwfF0--2" value="&lt;font style=&quot;font-size: 15px&quot;&gt;霹雳堂&lt;/font&gt;" style="text;html=1;strokeColor=none;fillColor=none;align=center;verticalAlign=middle;whiteSpace=wrap;rounded=0;" parent="1" vertex="1">
          <mxGeometry x="2120" y="800" width="60" height="20" as="geometry"/>
        </mxCell>
        <mxCell id="5swqk8HKtT8f3ECwfF0--3" value="&lt;font style=&quot;font-size: 20px&quot;&gt;莫东来&lt;/font&gt;" style="rounded=0;whiteSpace=wrap;html=1;" parent="1" vertex="1">
          <mxGeometry x="1920" y="870" width="120" height="60" as="geometry"/>
        </mxCell>
        <mxCell id="5swqk8HKtT8f3ECwfF0--4" value="&lt;font style=&quot;font-size: 20px&quot;&gt;齐落竹&lt;/font&gt;" style="rounded=0;whiteSpace=wrap;html=1;" parent="1" vertex="1">
          <mxGeometry x="800" y="870" width="120" height="60" as="geometry"/>
        </mxCell>
        <mxCell id="5swqk8HKtT8f3ECwfF0--5" value="&lt;font style=&quot;font-size: 15px&quot;&gt;铸神谷&lt;/font&gt;" style="text;html=1;strokeColor=none;fillColor=none;align=center;verticalAlign=middle;whiteSpace=wrap;rounded=0;" parent="1" vertex="1">
          <mxGeometry x="930" y="800" width="60" height="20" as="geometry"/>
        </mxCell>
        <mxCell id="5swqk8HKtT8f3ECwfF0--6" value="&lt;font style=&quot;font-size: 20px&quot;&gt;孟长风&lt;/font&gt;" style="rounded=0;whiteSpace=wrap;html=1;" parent="1" vertex="1">
          <mxGeometry x="2480" y="870" width="120" height="60" as="geometry"/>
        </mxCell>
        <mxCell id="SSJuECzcBz9Mgml8xmV9-1" value="&lt;font style=&quot;font-size: 20px&quot;&gt;沈义云&lt;/font&gt;" style="rounded=0;whiteSpace=wrap;html=1;" vertex="1" parent="1">
          <mxGeometry x="2110" y="870" width="120" height="60" as="geometry"/>
        </mxCell>
        <mxCell id="SSJuECzcBz9Mgml8xmV9-2" value="" style="endArrow=none;dashed=1;html=1;entryX=0;entryY=0.5;entryDx=0;entryDy=0;exitX=1;exitY=0.5;exitDx=0;exitDy=0;" edge="1" parent="1" source="5swqk8HKtT8f3ECwfF0--3" target="SSJuECzcBz9Mgml8xmV9-1">
          <mxGeometry width="50" height="50" relative="1" as="geometry">
            <mxPoint x="2010" y="850" as="sourcePoint"/>
            <mxPoint x="2060" y="800" as="targetPoint"/>
          </mxGeometry>
        </mxCell>
        <mxCell id="SSJuECzcBz9Mgml8xmV9-3" value="&lt;font style=&quot;font-size: 15px&quot;&gt;夫妻&lt;/font&gt;" style="text;html=1;align=center;verticalAlign=middle;resizable=0;points=[];;labelBackgroundColor=#ffffff;" vertex="1" connectable="0" parent="SSJuECzcBz9Mgml8xmV9-2">
          <mxGeometry x="-0.4571" y="-1" relative="1" as="geometry">
            <mxPoint x="11" y="-11" as="offset"/>
          </mxGeometry>
        </mxCell>
        <mxCell id="SSJuECzcBz9Mgml8xmV9-4" value="&lt;font style=&quot;font-size: 20px&quot;&gt;杨尚砚&lt;/font&gt;" style="rounded=0;whiteSpace=wrap;html=1;" vertex="1" parent="1">
          <mxGeometry x="-30" y="870" width="120" height="60" as="geometry"/>
        </mxCell>
        <mxCell id="SSJuECzcBz9Mgml8xmV9-6" style="edgeStyle=orthogonalEdgeStyle;rounded=0;orthogonalLoop=1;jettySize=auto;html=1;exitX=0.5;exitY=1;exitDx=0;exitDy=0;entryX=0.5;entryY=0;entryDx=0;entryDy=0;" edge="1" parent="1" source="SSJuECzcBz9Mgml8xmV9-5" target="45eqlcjFi_btQKpBo4QL-9">
          <mxGeometry relative="1" as="geometry"/>
        </mxCell>
        <mxCell id="SSJuECzcBz9Mgml8xmV9-5" value="&lt;font style=&quot;font-size: 20px&quot;&gt;韩守琼&lt;/font&gt;" style="rounded=0;whiteSpace=wrap;html=1;" vertex="1" parent="1">
          <mxGeometry x="2370" y="270" width="120" height="60" as="geometry"/>
        </mxCell>
        <mxCell id="SSJuECzcBz9Mgml8xmV9-7" value="沈义风" style="rounded=0;whiteSpace=wrap;html=1;" vertex="1" parent="1">
          <mxGeometry x="2295" y="870" width="120" height="60" as="geometry"/>
        </mxCell>
        <mxCell id="SSJuECzcBz9Mgml8xmV9-8" value="" style="endArrow=none;dashed=1;html=1;entryX=0;entryY=0.5;entryDx=0;entryDy=0;exitX=1;exitY=0.5;exitDx=0;exitDy=0;" edge="1" parent="1" source="SSJuECzcBz9Mgml8xmV9-1" target="SSJuECzcBz9Mgml8xmV9-7">
          <mxGeometry width="50" height="50" relative="1" as="geometry">
            <mxPoint x="2280" y="820" as="sourcePoint"/>
            <mxPoint x="2330" y="770" as="targetPoint"/>
          </mxGeometry>
        </mxCell>
        <mxCell id="SSJuECzcBz9Mgml8xmV9-9" value="&lt;font style=&quot;font-size: 15px&quot;&gt;兄妹&lt;/font&gt;" style="text;html=1;align=center;verticalAlign=middle;resizable=0;points=[];;labelBackgroundColor=#ffffff;" vertex="1" connectable="0" parent="SSJuECzcBz9Mgml8xmV9-8">
          <mxGeometry x="-0.4154" y="-4" relative="1" as="geometry">
            <mxPoint x="11" y="-14" as="offset"/>
          </mxGeometry>
        </mxCell>
      </root>
    </mxGraphModel>
  </diagram>
</mxfile>
